# xmcd CD database file
#
# Track frame offsets:
#	150
#	23322
#	44360
#	66552
#
# Disc length: 1194 seconds
#
# Revision: 0
# Processed by: cddbd v1.5PL3 Copyright (c) Steve Scherf et al.
# Submitted via: CDex 1.50beta9
#
DISCID=2c04a804
DTITLE=Hideki Kaji - MY Love, My Milk
DYEAR=2001
DGENRE=Pop
TTITLE0=My Love, My Milk
TTITLE1=Disco Madonna
TTITLE2=The Great Party
TTITLE3=My Love, My Milk (Instrumental)
EXTD=YEAR: 2001
EXTT0=
EXTT1=
EXTT2=
EXTT3=
PLAYORDER=
